<svg width="40" height="38" viewBox="0 0 40 38" fill="none" xmlns="http://www.w3.org/2000/svg">
<g id="favorite_border_24px">
<path id="icon/action/favorite_border_24px" fill-rule="evenodd" clip-rule="evenodd" d="M20 7.78207C21.8166 5.7554 24.6 4.4729 27.5 4.4729C32.6333 4.4729 36.6666 8.30457 36.6666 13.1812C36.6666 19.1613 31.0093 24.0349 22.4378 31.4189L22.4166 31.4371L20 33.5271L17.5833 31.4529L17.5175 31.3961C8.97104 24.018 3.33331 19.1509 3.33331 13.1812C3.33331 8.30457 7.36665 4.4729 12.5 4.4729C15.4 4.4729 18.1833 5.7554 20 7.78207ZM20 29.2521L20.1666 29.0937C28.1 22.2696 33.3333 17.7571 33.3333 13.1812C33.3333 10.0146 30.8333 7.63957 27.5 7.63957C24.9333 7.63957 22.4333 9.20707 21.5666 11.3762H18.45C17.5666 9.20707 15.0666 7.63957 12.5 7.63957C9.16665 7.63957 6.66665 10.0146 6.66665 13.1812C6.66665 17.7571 11.9 22.2696 19.8333 29.0937L20 29.2521Z" fill="#9BA5B7"/>
</g>
</svg>
